<svg width="227" height="228" viewBox="0 0 227 228" fill="none" xmlns="http://www.w3.org/2000/svg">
<path d="M113.44 227.411C176.091 227.411 226.88 176.622 226.88 113.971C226.88 51.3194 176.091 0.530609 113.44 0.530609C50.7888 0.530609 0 51.3194 0 113.971C0 176.622 50.7888 227.411 113.44 227.411Z" fill="#F2F2F2"/>
<path d="M114.454 118.7C139.437 118.7 159.69 98.4471 159.69 73.4638C159.69 48.4805 139.437 28.2276 114.454 28.2276C89.4703 28.2276 69.2173 48.4805 69.2173 73.4638C69.2173 98.4471 89.4703 118.7 114.454 118.7Z" fill="#2F2E41"/>
<path d="M114.472 124.643C136.791 124.643 154.883 106.55 154.883 84.2311C154.883 61.9124 136.791 43.8196 114.472 43.8196C92.1533 43.8196 74.0605 61.9124 74.0605 84.2311C74.0605 106.55 92.1533 124.643 114.472 124.643Z" fill="#FFB8B8"/>
<path d="M198.235 188.51C178.582 210.872 150.923 224.609 121.229 226.755C91.5357 228.901 62.1891 219.284 39.5248 199.98L49.2548 172.83C51.4536 168.008 54.9235 163.875 59.2925 160.875C63.6614 157.875 68.7646 156.12 74.0548 155.8L80.2448 155.42L95.0048 142.69C95.0048 142.69 134.775 141.27 134.185 140.59L158.275 155.08L158.255 154.98L167.725 155.56C173.015 155.879 178.119 157.633 182.488 160.633C186.857 163.633 190.327 167.767 192.525 172.59L198.235 188.51Z" fill="#BD54BD"/>
<path d="M157.107 70.0586C157.39 67.0415 157.52 64.0119 157.496 60.9816C157.661 54.9884 156.563 49.0275 154.273 43.4866C151.457 37.3515 146.436 32.5005 140.207 29.8976C134.033 27.4075 127.134 27.4135 120.964 29.9144C115.394 26.3953 109.206 23.6055 102.688 23.2599C96.1703 22.9144 89.2793 25.3324 85.2629 30.655C84.366 32.06 83.3473 33.3834 82.2186 34.61C78.99 37.5999 74.0834 37.1686 69.7921 36.5573C71.7168 38.2069 73.6421 39.8566 75.5679 41.5062C73.238 42.1149 70.9079 42.7236 68.5776 43.3322C71.2967 44.9813 74.0156 46.6303 76.7342 48.2795C68.8409 53.0172 65.2532 63.358 66.2009 72.7496C67.0975 81.6412 71.3902 89.772 76.5219 96.9988C78.569 92.6789 78.1279 87.5098 78.0941 82.6444C78.0754 81.0663 78.1716 79.4889 78.3822 77.9247C95.7248 82.082 113.846 84.75 132.223 78.1474L135.91 69.1216C136.428 69.1748 136.946 69.2247 137.463 69.2797L139.6 78.1557C144.444 80.1357 149.298 81.8661 154.154 80.0477C154.39 81.4187 154.532 82.8179 154.642 84.1627C155.058 82.5541 155.42 80.9336 155.746 79.3067C156.388 78.9624 157.002 78.5697 157.585 78.1322C157.702 75.4317 157.542 72.7264 157.107 70.0586V70.0586Z" fill="#2F2E41"/>
</svg>
